<svg xmlns="http://www.w3.org/2000/svg" viewBox="0 0 64 64"><g id="_02-waist" data-name="02-waist"><path d="M49,64H35a1,1,0,0,1-.992-.876L32.117,48h-.234L29.992,63.124A1,1,0,0,1,29,64H16a1,1,0,0,1-.992-.876l-2.8-22.417a26.608,26.608,0,0,1,2.926-15.829l4.8-7.5a3.013,3.013,0,0,0,.156-2.96L16.7,7.644a1.038,1.038,0,0,1-.071-.185A18,18,0,0,1,16,2.724V1a1,1,0,0,1,1-1H47a1,1,0,0,1,1,1V2.724a18,18,0,0,1-.634,4.735,1.038,1.038,0,0,1-.071.185l-3.384,6.771a3.013,3.013,0,0,0,.156,2.96l4.761,7.435a26.587,26.587,0,0,1,2.966,15.9L50,63.08A1,1,0,0,1,49,64ZM35.883,62H48.077l1.729-21.5a25.159,25.159,0,0,0,.194-3.1,24.7,24.7,0,0,0-2.9-11.586l-4.721-7.366a5.021,5.021,0,0,1-.261-4.932l3.339-6.682A15.98,15.98,0,0,0,46,2.724V2H18v.724a15.98,15.98,0,0,0,.539,4.115l3.339,6.682a5.021,5.021,0,0,1-.261,4.932l-4.761,7.435a24.644,24.644,0,0,0-2.666,14.57L16.883,62H28.117l1.891-15.124A1,1,0,0,1,31,46h2a1,1,0,0,1,.992.876Z"/><path d="M32,36c-12.066,0-19.1-2.955-19.394-3.081l.787-1.838C13.461,31.11,20.38,34,32,34Z"/><path d="M30.4,47.8C30.283,47.712,18.6,39,13,39V37c6.261,0,18.1,8.824,18.6,9.2Z"/><path d="M32,36V34c11.62,0,18.539-2.89,18.607-2.919l.787,1.838C51.1,33.045,44.066,36,32,36Z"/><path d="M33.6,47.8l-1.2-1.6C32.9,45.824,44.739,37,51,37v2C45.4,39,33.717,47.712,33.6,47.8Z"/><rect x="18" y="7" width="28" height="2"/><rect x="31" y="26" width="2" height="2"/><rect x="26" y="4" width="21" height="2"/><rect x="22" y="4" width="2" height="2"/><rect x="17" y="4" width="3" height="2"/><path d="M54,22a1,1,0,0,1-.707-.293l-5-5a1,1,0,0,1,0-1.414l5-5A1,1,0,0,1,55,11v2h5a1,1,0,0,1,1,1v4a1,1,0,0,1-1,1H55v2a1,1,0,0,1-1,1Zm-3.586-6L53,18.586V18a1,1,0,0,1,1-1h5V15H54a1,1,0,0,1-1-1v-.586Z"/><path d="M10,22a1,1,0,0,1-1-1V19H4a1,1,0,0,1-1-1V14a1,1,0,0,1,1-1H9V11a1,1,0,0,1,1.707-.707l5,5a1,1,0,0,1,0,1.414l-5,5A1,1,0,0,1,10,22ZM5,17h5a1,1,0,0,1,1,1v.586L13.586,16,11,13.414V14a1,1,0,0,1-1,1H5Z"/></g></svg>