<svg xmlns="http://www.w3.org/2000/svg" viewBox="0 0 64 64"><g id="_15-stopwatch" data-name="15-stopwatch"><path d="M32,64A27,27,0,1,1,59,37,27.03,27.03,0,0,1,32,64Zm0-52A25,25,0,1,0,57,37,25.028,25.028,0,0,0,32,12Z"/><path d="M38,8H26a2,2,0,0,1-2-2V3a3,3,0,0,1,3-3H37a3,3,0,0,1,3,3V6A2,2,0,0,1,38,8ZM27,2a1,1,0,0,0-1,1V6H38V3a1,1,0,0,0-1-1Z"/><path d="M36,12H34V8H30v4H28V7a1,1,0,0,1,1-1h6a1,1,0,0,1,1,1Z"/><rect x="27" y="1" width="2" height="6"/><rect x="35" y="1" width="2" height="6"/><rect x="31" y="1" width="2" height="6"/><path d="M53.059,16a2.936,2.936,0,0,1-2.08-.86l-4.118-4.118a2.942,2.942,0,0,1,4.16-4.16l4.118,4.118A2.94,2.94,0,0,1,53.059,16ZM48.941,8a.941.941,0,0,0-.666,1.606l4.119,4.119a.941.941,0,0,0,1.331-1.331L49.606,8.275A.938.938,0,0,0,48.941,8Z"/><rect x="44.379" y="11.5" width="4.243" height="2" transform="translate(4.781 36.542) rotate(-45)"/><rect x="47.379" y="14.5" width="4.243" height="2" transform="translate(3.538 39.542) rotate(-45)"/><path d="M32,60A23.026,23.026,0,0,1,9,37h2a21,21,0,0,0,42,0h2A23.026,23.026,0,0,1,32,60Z"/><path d="M52.914,35.09a21,21,0,0,0-41.123-3.818l-1.925-.544a23,23,0,0,1,45.04,4.182Z"/><path d="M11.086,35.089l-1.992-.178c.062-.7.158-1.4.285-2.091l1.967.362C11.23,33.812,11.143,34.454,11.086,35.089Z"/><rect x="31" y="39" width="2" height="2"/><rect x="31" y="33" width="2" height="2"/><path d="M40,42H36a2,2,0,0,1-2-2V34a2,2,0,0,1,2-2h4a2,2,0,0,1,2,2v6A2,2,0,0,1,40,42Zm-4-8v6h4V34Z"/><path d="M49,42H45a2,2,0,0,1-2-2V34a2,2,0,0,1,2-2h4a2,2,0,0,1,2,2v6A2,2,0,0,1,49,42Zm-4-8v6h4V34Z"/><path d="M19,42H15a2,2,0,0,1-2-2V34a2,2,0,0,1,2-2h4a2,2,0,0,1,2,2v6A2,2,0,0,1,19,42Zm-4-8v6h4V34Z"/><path d="M28,42H24a2,2,0,0,1-2-2V34a2,2,0,0,1,2-2h4a2,2,0,0,1,2,2v6A2,2,0,0,1,28,42Zm-4-8v6h4V34Z"/></g></svg>