<svg xmlns="http://www.w3.org/2000/svg" viewBox="0 0 64 64"><g id="_16-heart" data-name="16-heart"><path d="M32,60C28.291,60,0,47.564,0,21.2,0,9.908,8.3,4,16.5,4c7,0,11.85,3.451,15.5,11.124C35.65,7.451,40.5,4,47.5,4,55.7,4,64,9.908,64,21.2,64,47.068,38.11,60,32,60ZM16.5,6C9.294,6,2,11.221,2,21.2,2,45.717,28.66,58,32,58c2.248,0,9.753-2.752,16.912-9.113C54.883,43.581,62,34.471,62,21.2,62,11.221,54.706,6,47.5,6,40.727,6,36.368,9.583,32.925,17.979a1,1,0,0,1-1.85,0C27.632,9.583,23.273,6,16.5,6Z"/><path d="M43,48a1,1,0,0,1-.929-.629L34.86,29.344l-4.982,9.135a1,1,0,0,1-.834.52.98.98,0,0,1-.876-.444L24.465,33H12V31H25a1,1,0,0,1,.832.445l3.082,4.623,5.208-9.547A.972.972,0,0,1,35.06,26a1,1,0,0,1,.869.626L43,44.308l5.071-12.68A1,1,0,0,1,49,31H59v2H49.677L43.929,47.371A1,1,0,0,1,43,48Z"/><rect x="8" y="31" width="2" height="2"/><polygon points="6 31 2 31 2 32 3 33 6 33 6 31"/></g></svg>