<svg xmlns="http://www.w3.org/2000/svg" viewBox="0 0 64 64"><g id="_17-weight_Scale" data-name="17-weight Scale"><path d="M43.538,53C41.623,53,38,51.886,38,47.667a7.339,7.339,0,0,1,.51-3.051A8.229,8.229,0,0,0,39,41.167a5.142,5.142,0,0,0-1.623-3.7A8.419,8.419,0,0,1,35,31.417C35,26.341,38.925,25,41,25c8.363,0,10,5.928,10,16.167,0,4.8-1.207,8.249-3.589,10.245A6.523,6.523,0,0,1,43.538,53ZM41,27c-.418,0-4,.171-4,4.417a6.389,6.389,0,0,0,1.912,4.763A7.081,7.081,0,0,1,41,41.167a10.018,10.018,0,0,1-.617,4.151A5.456,5.456,0,0,0,40,47.667C40,50.906,43.176,51,43.538,51,43.752,51,49,50.78,49,41.167,49,30.444,47.057,27,41,27Z"/><path d="M20.462,53C20.388,53,13,52.864,13,41.167,13,30.928,14.637,25,23,25c2.075,0,6,1.341,6,6.417a8.419,8.419,0,0,1-2.377,6.045A5.142,5.142,0,0,0,25,41.167a8.229,8.229,0,0,0,.49,3.449A7.339,7.339,0,0,1,26,47.667C26,51.886,22.377,53,20.462,53ZM23,27c-6.054,0-8,3.444-8,14.167C15,50.78,20.248,51,20.472,51,20.82,51,24,50.875,24,47.667a5.456,5.456,0,0,0-.383-2.349A10.018,10.018,0,0,1,23,41.167a7.081,7.081,0,0,1,2.088-4.987A6.389,6.389,0,0,0,27,31.417C27,27.171,23.415,27.005,23,27Z"/><path d="M32,23A10,10,0,1,1,42,13,10.011,10.011,0,0,1,32,23ZM32,5a8,8,0,1,0,8,8A8.009,8.009,0,0,0,32,5Z"/><rect x="6" y="24" width="2" height="2"/><path d="M55,57H9a3,3,0,0,1-3-3V28H8V54a1,1,0,0,0,1,1H55a1,1,0,0,0,1-1V50h2v4A3,3,0,0,1,55,57Z"/><path d="M58,48H56V20a1,1,0,0,0-1-1H43.536a13.005,13.005,0,0,1-23.07,0L9,19a1,1,0,0,0-1,1v2H6V20a3,3,0,0,1,3-3H21l.145.006a1,1,0,0,1,.853.581,11.006,11.006,0,0,0,20.005,0,1,1,0,0,1,.9-.583H55a3,3,0,0,1,3,3Z"/><rect x="31" y="4" width="2" height="4"/><rect x="23" y="12" width="4" height="2"/><rect x="37" y="12" width="4" height="2"/><circle cx="32" cy="13" r="2"/><rect x="31" y="14" width="2" height="6"/><rect x="25.201" y="17.778" width="2.043" height="2" transform="translate(-5.598 24.042) rotate(-45)"/><rect x="36.757" y="6.222" width="2.043" height="2" transform="translate(5.958 28.828) rotate(-45)"/><rect x="25.222" y="6.201" width="2" height="2.043" transform="translate(2.573 20.657) rotate(-45)"/><rect x="36.778" y="17.757" width="2" height="2.043" transform="translate(-2.213 32.213) rotate(-45)"/><path d="M57,61H7a7.009,7.009,0,0,1-7-7V12A7.008,7.008,0,0,1,7,5H21.5a13.521,13.521,0,0,1,21,0H57a7.008,7.008,0,0,1,7,7v2H62V12a5.006,5.006,0,0,0-5-5H42a1,1,0,0,1-.812-.416,11.5,11.5,0,0,0-18.376,0A1,1,0,0,1,22,7H7a5.006,5.006,0,0,0-5,5V54a5.006,5.006,0,0,0,5,5H57a5.006,5.006,0,0,0,5-5V20h2V54A7.009,7.009,0,0,1,57,61Z"/><rect x="62" y="16" width="2" height="2"/><path d="M57,64H7a7.009,7.009,0,0,1-7-7V53H2v4a5.006,5.006,0,0,0,5,5H57a5.006,5.006,0,0,0,5-5V52h2v5A7.009,7.009,0,0,1,57,64Z"/></g></svg>